<?xml version="1.0" encoding="utf-8"?>
<!-- Generator: Adobe Illustrator 19.1.0, SVG Export Plug-In . SVG Version: 6.00 Build 0)  -->
<svg version="1.1" id="Layer_1" xmlns="http://www.w3.org/2000/svg" xmlns:xlink="http://www.w3.org/1999/xlink" x="0px" y="0px"
	 viewBox="0 0 34.8 55" style="enable-background:new 0 0 34.8 55;" xml:space="preserve">
<style type="text/css">
	.st0{fill:#454545;}
</style>
<g>
	<g>
		<path class="st0" d="M29.8,18.1c0.1,0,0.1,0,0.2,0c1,0.3,1.7,0.7,1.7,0.7c0.9,0.5,3.2,1.9,3.2,1.9c-0.5-1.1-2.1-2.6-2.4-2.9
			c-0.2-0.2-5-5.1-15.4-5.2l-0.2,0c-0.1,0-0.2,0-0.3,0c0,0,0,0,0,0c-0.5,0-1.1,0-1.7,0c-6.2,0-14.2,0.6-14.3,0.6l-0.6,0v1.5l0.5,0.1
			c1.2,0.2,4.7,1,4.7,2.8v19c0,2.7-4.7,3.7-4.8,3.7L0,40.5l0,1.7l0.9-0.2c0.8-0.2,3-0.5,8.9-0.5c2.7,0,5.3,0.1,6.6,0.1
			c0.3,0,0.6,0,0.9,0c9,0,16.2-6.5,16.2-14.5c0-3.2-1.4-6.4-3.9-9C29.8,18.1,29.8,18.1,29.8,18.1z M18.1,37.3h-4.2
			c-0.9,0-1.3-0.9-1.3-1.4V17.5c0-0.3,0-0.4,0-0.6c0-0.3,0.1-0.4,0.8-0.4c0.1,0,0.2,0,0.3,0l0.1,0c0.2,0,0.5,0,0.8,0
			c2.2,0,4.1,0.5,5.9,1.4c0.8,0.4,1.5,0.9,2.1,1.5c2.2,2,3.5,4.8,3.5,7.7C26.1,33,22.7,37.3,18.1,37.3z"/>
		<path class="st0" d="M19,55c0,0,0.6-5.6,1.2-12.8c-0.8,0.1-1.6,0.2-2.4,0.2C18.4,49.4,19,55,19,55z"/>
		<path class="st0" d="M19,0c0,0-0.9,5.2-1.5,11.5c1.1,0,2.1,0.1,3,0.2C19.9,4.9,19,0,19,0z"/>
		<path class="st0" d="M9.2,6.5c0,0-0.3,2.1-0.7,5.1c0.5,0,1,0,1.5-0.1C9.5,8.5,9.2,6.5,9.2,6.5z"/>
		<path class="st0" d="M9.2,48.2c0,0,0.3-2.1,0.6-5.9c-0.4,0-0.8,0-1.2,0C8.9,45.8,9.2,48.2,9.2,48.2z"/>
		<path class="st0" d="M28.5,6.4c0,0-0.5,3.1-1,7.1c0.8,0.3,1.4,0.7,2,1C29.1,9.8,28.5,6.4,28.5,6.4z"/>
		<path class="st0" d="M29.8,17.5C29.8,17.5,29.8,17.4,29.8,17.5C29.8,17.4,29.7,17.4,29.8,17.5C29.7,17.4,29.8,17.5,29.8,17.5z"/>
		<path class="st0" d="M17.3,36H18c0.9,0,1.9-0.1,2.7-0.6c0.3-4.1,0.4-7.6,0.4-11.3c0-1.8-0.1-3.1-0.1-4.8c-0.2-0.1-0.4-0.3-0.6-0.4
			c-1.1-0.6-2.2-0.9-3.4-1.2c-0.2,2.3-0.2,4.2-0.2,6.4C16.8,27.6,17,32,17.3,36z"/>
		<path class="st0" d="M27.6,39.6c0.4,5.1,0.9,9.3,0.9,9.3s0.5-4.8,1-10.8C28.9,38.7,28.3,39.1,27.6,39.6z"/>
	</g>
</g>
</svg>
