<?xml version="1.0" encoding="utf-8"?>
<!-- Generator: Adobe Illustrator 18.1.1, SVG Export Plug-In . SVG Version: 6.00 Build 0)  -->
<svg version="1.1" id="Layer_1" xmlns="http://www.w3.org/2000/svg" xmlns:xlink="http://www.w3.org/1999/xlink" x="0px" y="0px"
	 viewBox="0 0 856.4 482.8" enable-background="new 0 0 856.4 482.8" xml:space="preserve">
<path fill="#EE265C" d="M0.9,241.5c0,0.4,0,0.9,0,1.3C0.9,242.3,0.9,241.9,0.9,241.5L0.9,241.5z"/>
<path fill="#EE265C" d="M1.3,255.5c-0.1-1.5-0.2-3-0.2-4.5C1.2,252.5,1.2,254,1.3,255.5z"/>
<path fill="#EE265C" d="M241.2,241.5l-172,167.8c-41.9-43-64.5-97.7-67.9-153.3C8.8,382,113.4,482,241.4,482
	c132.8,0,240.5-107.7,240.5-240.5H241.2z"/>
<path fill="#EE265C" d="M1,249.1c0-1.1-0.1-2.3-0.1-3.4C1,246.9,1,248,1,249.1z"/>
<path fill="#1189B6" d="M1.3,255.9c0-0.2,0-0.3,0-0.5C1.3,255.6,1.3,255.8,1.3,255.9z"/>
<path fill="#1189B6" d="M1.1,251c0-0.6-0.1-1.3-0.1-1.9C1.1,249.8,1.1,250.4,1.1,251z"/>
<path fill="#1189B6" d="M413.6,73.4c-92.7-95.1-245-97-340.1-4.2C25.1,116.3,0.9,178.9,0.9,241.5h240.3L413.6,73.4z"/>
<path fill="#1189B6" d="M1,245.7c0-1,0-2,0-2.9C0.9,243.8,0.9,244.7,1,245.7z"/>
<path fill="#440636" d="M241.2,241.5H0.9c0,0.4,0,0.9,0,1.3c0,1,0,2,0,2.9c0,1.1,0,2.3,0.1,3.4c0,0.6,0,1.3,0.1,1.9
	c0.1,1.5,0.1,3,0.2,4.5c0,0.2,0,0.3,0,0.5c3.4,55.6,25.9,110.3,67.9,153.3L241.2,241.5z"/>
<polygon fill="#1189B6" points="847.4,0.8 512.4,0.8 679.9,241.8 "/>
<polygon fill="#EE265C" points="512.4,482.8 847.4,482.8 679.9,241.8 "/>
<polygon fill="#440636" points="512.4,0.8 512.4,482.8 679.9,241.8 "/>
</svg>
