<?xml version="1.0" encoding="utf-8"?>
<!-- Generator: Adobe Illustrator 18.1.1, SVG Export Plug-In . SVG Version: 6.00 Build 0)  -->
<svg version="1.1" id="Layer_1" xmlns="http://www.w3.org/2000/svg" xmlns:xlink="http://www.w3.org/1999/xlink" x="0px" y="0px"
	 viewBox="0 0 648 648" enable-background="new 0 0 648 648" xml:space="preserve">
<path fill="#EE265C" d="M0.7,324.1c0,0.3,0,0.7,0,1C0.7,324.7,0.7,324.4,0.7,324.1L0.7,324.1z"/>
<path fill="#EE265C" d="M1,334.7c-0.1-1.1-0.2-2.3-0.2-3.4C0.9,332.4,0.9,333.5,1,334.7z"/>
<path fill="#EE265C" d="M0.8,329.8c0-0.8-0.1-1.7-0.1-2.6C0.8,328.2,0.8,329,0.8,329.8z"/>
<path fill="#1189B6" d="M1,335c0-0.2,0-0.2,0-0.4C1,334.7,1,334.9,1,335z"/>
<path fill="#1189B6" d="M0.8,331.3c0-0.5-0.1-1-0.1-1.4C0.8,330.4,0.8,330.8,0.8,331.3z"/>
<path fill="#1189B6" d="M0.8,327.3c0-0.8,0-1.5,0-2.2C0.7,325.8,0.7,326.5,0.8,327.3z"/>
<polygon fill="#006989" points="641.2,141.9 620.1,141.9 503.9,309.1 514.5,324.3 "/>
<polygon fill="#1189B6" points="387.7,141.9 503.9,309.1 620.1,141.9 "/>
<polygon fill="#D11C54" points="641.2,506.7 514.5,324.3 503.3,340.3 618.9,506.7 "/>
<polygon fill="#EE265C" points="618.9,506.7 503.3,340.3 387.7,506.7 "/>
<polygon fill="#21031B" points="387.7,141.9 387.7,506.7 405.7,480.8 405.7,167.8 "/>
<polygon fill="#440636" points="405.7,167.8 405.7,480.8 514.5,324.3 "/>
<path fill="#006989" d="M182.3,159.9c46.1,0,87.8,19,117.6,49.6l13-12.7c-70.1-72-185.4-73.4-257.3-3.2
	C19,229.3,0.7,276.7,0.7,324.1H18C18.1,233.4,91.6,159.9,182.3,159.9z"/>
<path fill="#1189B6" d="M300,209.6c-29.8-30.6-71.5-49.6-117.6-49.6c-90.7,0-164.2,73.5-164.3,164.1h164.5L300,209.6z"/>
<path fill="#EE265C" d="M182.3,488.6c90.7,0,164.3-73.6,164.3-164.3c0-0.1,0-0.1,0-0.2H182.5L64.7,439
	C94.5,469.6,136.2,488.6,182.3,488.6z"/>
<path fill="#21031B" d="M18,324.1H0.7c0,0.3,0,0.7,0,1c0,0.8,0,1.5,0,2.2c0,0.8,0,1.7,0.1,2.6c0,0.5,0,1,0.1,1.4
	c0.1,1.1,0.1,2.3,0.2,3.4c0,0.2,0,0.2,0,0.4c2.6,42.1,19.6,83.5,51.4,116l12.3-12C35.8,409.4,18,368.9,18,324.3
	C18,324.2,18,324.1,18,324.1z"/>
<path fill="#440636" d="M18,324.1c0,0.1,0,0.1,0,0.2c0,44.6,17.8,85.1,46.7,114.7l117.8-114.9H18z"/>
<path fill="#D11C54" d="M346.6,324.1c0,0.1,0,0.1,0,0.2c0,0,0,0,0,0H182.5l-18.6,18h181.8c-9,82.3-78.7,146.3-163.3,146.3
	c-46.1,0-87.8-19-117.6-49.6l-12.3,12C20.7,418.5,3.6,377.1,1,335c5.7,95.3,84.8,171,181.7,171c100.5,0,182-81.5,182-182H346.6z"/>
</svg>
